# xmcd CD database file
#
# Track frame offsets:
#	150
#	24522
#	48825
#	72485
#	89935
#	111660
#	134747
#	158187
#	182217
#	203410
#	223710
#	240282
#	262842
#	285422
#
# Disc length: 4055 seconds
#
# Revision: 2
# Processed by: cddbd v1.5.2PL0 Copyright (c) Steve Scherf et al.
# Submitted via: CDex 1.70beta2
#
DISCID=d00fd50e
DTITLE=The Whispers - Greatest Slow Jams - Volume 1
DYEAR=1996
DGENRE=R&B
TTITLE0=Give It To Me
TTITLE1=Love Is Where You find It
TTITLE2=Say Yes
TTITLE3=Try It Again
TTITLE4=In The Mood
TTITLE5=Lady
TTITLE6=Are You going My Way
TTITLE7=Do They Turn You On
TTITLE8=Welcome Into My Dreams
TTITLE9=A Song For Donny
TTITLE10=Chocolate girl
TTITLE11=I'm Gonna Make You My Wife
TTITLE12=Love's Calling
TTITLE13=Living Together In Sin
EXTD=YEAR: 1996
EXTT0=
EXTT1=
EXTT2=
EXTT3=
EXTT4=
EXTT5=
EXTT6=
EXTT7=
EXTT8=
EXTT9=
EXTT10=
EXTT11=
EXTT12=
EXTT13=
PLAYORDER=
